<svg xmlns="http://www.w3.org/2000/svg" width="420mm" height="280mm" viewBox="0 0 1200 800">
<rect width="1200" height="800" fill="white"/>
<g font-family="Arial,sans-serif" text-anchor="middle" fill="#352d28">
<text x="600" y="100" font-size="26" letter-spacing="5">DONUT MIDI</text>
<text x="600" y="135" font-size="13">LOOK / TASTE / LISTEN</text>
<rect x="30" y="30" width="15" height="15" fill="black"/>
<rect x="45" y="30" width="15" height="15" fill="black"/>
<rect x="60" y="30" width="15" height="15" fill="black"/>
<rect x="75" y="30" width="15" height="15" fill="black"/>
<rect x="90" y="30" width="15" height="15" fill="black"/>
<rect x="105" y="30" width="15" height="15" fill="black"/>
<rect x="120" y="30" width="15" height="15" fill="black"/>
<rect x="135" y="30" width="15" height="15" fill="black"/>
<rect x="30" y="45" width="15" height="15" fill="black"/>
<rect x="45" y="45" width="15" height="15" fill="black"/>
<rect x="60" y="45" width="15" height="15" fill="black"/>
<rect x="90" y="45" width="15" height="15" fill="black"/>
<rect x="105" y="45" width="15" height="15" fill="black"/>
<rect x="120" y="45" width="15" height="15" fill="black"/>
<rect x="135" y="45" width="15" height="15" fill="black"/>
<rect x="30" y="60" width="15" height="15" fill="black"/>
<rect x="45" y="60" width="15" height="15" fill="black"/>
<rect x="90" y="60" width="15" height="15" fill="black"/>
<rect x="120" y="60" width="15" height="15" fill="black"/>
<rect x="135" y="60" width="15" height="15" fill="black"/>
<rect x="30" y="75" width="15" height="15" fill="black"/>
<rect x="45" y="75" width="15" height="15" fill="black"/>
<rect x="60" y="75" width="15" height="15" fill="black"/>
<rect x="75" y="75" width="15" height="15" fill="black"/>
<rect x="105" y="75" width="15" height="15" fill="black"/>
<rect x="135" y="75" width="15" height="15" fill="black"/>
<rect x="30" y="90" width="15" height="15" fill="black"/>
<rect x="45" y="90" width="15" height="15" fill="black"/>
<rect x="60" y="90" width="15" height="15" fill="black"/>
<rect x="75" y="90" width="15" height="15" fill="black"/>
<rect x="120" y="90" width="15" height="15" fill="black"/>
<rect x="135" y="90" width="15" height="15" fill="black"/>
<rect x="30" y="105" width="15" height="15" fill="black"/>
<rect x="60" y="105" width="15" height="15" fill="black"/>
<rect x="120" y="105" width="15" height="15" fill="black"/>
<rect x="135" y="105" width="15" height="15" fill="black"/>
<rect x="30" y="120" width="15" height="15" fill="black"/>
<rect x="60" y="120" width="15" height="15" fill="black"/>
<rect x="90" y="120" width="15" height="15" fill="black"/>
<rect x="135" y="120" width="15" height="15" fill="black"/>
<rect x="30" y="135" width="15" height="15" fill="black"/>
<rect x="45" y="135" width="15" height="15" fill="black"/>
<rect x="60" y="135" width="15" height="15" fill="black"/>
<rect x="75" y="135" width="15" height="15" fill="black"/>
<rect x="90" y="135" width="15" height="15" fill="black"/>
<rect x="105" y="135" width="15" height="15" fill="black"/>
<rect x="120" y="135" width="15" height="15" fill="black"/>
<rect x="135" y="135" width="15" height="15" fill="black"/>
<rect x="1050" y="30" width="15" height="15" fill="black"/>
<rect x="1065" y="30" width="15" height="15" fill="black"/>
<rect x="1080" y="30" width="15" height="15" fill="black"/>
<rect x="1095" y="30" width="15" height="15" fill="black"/>
<rect x="1110" y="30" width="15" height="15" fill="black"/>
<rect x="1125" y="30" width="15" height="15" fill="black"/>
<rect x="1140" y="30" width="15" height="15" fill="black"/>
<rect x="1155" y="30" width="15" height="15" fill="black"/>
<rect x="1050" y="45" width="15" height="15" fill="black"/>
<rect x="1080" y="45" width="15" height="15" fill="black"/>
<rect x="1095" y="45" width="15" height="15" fill="black"/>
<rect x="1125" y="45" width="15" height="15" fill="black"/>
<rect x="1140" y="45" width="15" height="15" fill="black"/>
<rect x="1155" y="45" width="15" height="15" fill="black"/>
<rect x="1050" y="60" width="15" height="15" fill="black"/>
<rect x="1080" y="60" width="15" height="15" fill="black"/>
<rect x="1125" y="60" width="15" height="15" fill="black"/>
<rect x="1155" y="60" width="15" height="15" fill="black"/>
<rect x="1050" y="75" width="15" height="15" fill="black"/>
<rect x="1065" y="75" width="15" height="15" fill="black"/>
<rect x="1080" y="75" width="15" height="15" fill="black"/>
<rect x="1095" y="75" width="15" height="15" fill="black"/>
<rect x="1140" y="75" width="15" height="15" fill="black"/>
<rect x="1155" y="75" width="15" height="15" fill="black"/>
<rect x="1050" y="90" width="15" height="15" fill="black"/>
<rect x="1065" y="90" width="15" height="15" fill="black"/>
<rect x="1080" y="90" width="15" height="15" fill="black"/>
<rect x="1155" y="90" width="15" height="15" fill="black"/>
<rect x="1050" y="105" width="15" height="15" fill="black"/>
<rect x="1110" y="105" width="15" height="15" fill="black"/>
<rect x="1140" y="105" width="15" height="15" fill="black"/>
<rect x="1155" y="105" width="15" height="15" fill="black"/>
<rect x="1050" y="120" width="15" height="15" fill="black"/>
<rect x="1065" y="120" width="15" height="15" fill="black"/>
<rect x="1110" y="120" width="15" height="15" fill="black"/>
<rect x="1155" y="120" width="15" height="15" fill="black"/>
<rect x="1050" y="135" width="15" height="15" fill="black"/>
<rect x="1065" y="135" width="15" height="15" fill="black"/>
<rect x="1080" y="135" width="15" height="15" fill="black"/>
<rect x="1095" y="135" width="15" height="15" fill="black"/>
<rect x="1110" y="135" width="15" height="15" fill="black"/>
<rect x="1125" y="135" width="15" height="15" fill="black"/>
<rect x="1140" y="135" width="15" height="15" fill="black"/>
<rect x="1155" y="135" width="15" height="15" fill="black"/>
<rect x="1050" y="650" width="15" height="15" fill="black"/>
<rect x="1065" y="650" width="15" height="15" fill="black"/>
<rect x="1080" y="650" width="15" height="15" fill="black"/>
<rect x="1095" y="650" width="15" height="15" fill="black"/>
<rect x="1110" y="650" width="15" height="15" fill="black"/>
<rect x="1125" y="650" width="15" height="15" fill="black"/>
<rect x="1140" y="650" width="15" height="15" fill="black"/>
<rect x="1155" y="650" width="15" height="15" fill="black"/>
<rect x="1050" y="665" width="15" height="15" fill="black"/>
<rect x="1065" y="665" width="15" height="15" fill="black"/>
<rect x="1125" y="665" width="15" height="15" fill="black"/>
<rect x="1140" y="665" width="15" height="15" fill="black"/>
<rect x="1155" y="665" width="15" height="15" fill="black"/>
<rect x="1050" y="680" width="15" height="15" fill="black"/>
<rect x="1065" y="680" width="15" height="15" fill="black"/>
<rect x="1080" y="680" width="15" height="15" fill="black"/>
<rect x="1110" y="680" width="15" height="15" fill="black"/>
<rect x="1125" y="680" width="15" height="15" fill="black"/>
<rect x="1140" y="680" width="15" height="15" fill="black"/>
<rect x="1155" y="680" width="15" height="15" fill="black"/>
<rect x="1050" y="695" width="15" height="15" fill="black"/>
<rect x="1080" y="695" width="15" height="15" fill="black"/>
<rect x="1095" y="695" width="15" height="15" fill="black"/>
<rect x="1125" y="695" width="15" height="15" fill="black"/>
<rect x="1140" y="695" width="15" height="15" fill="black"/>
<rect x="1155" y="695" width="15" height="15" fill="black"/>
<rect x="1050" y="710" width="15" height="15" fill="black"/>
<rect x="1065" y="710" width="15" height="15" fill="black"/>
<rect x="1080" y="710" width="15" height="15" fill="black"/>
<rect x="1095" y="710" width="15" height="15" fill="black"/>
<rect x="1110" y="710" width="15" height="15" fill="black"/>
<rect x="1125" y="710" width="15" height="15" fill="black"/>
<rect x="1155" y="710" width="15" height="15" fill="black"/>
<rect x="1050" y="725" width="15" height="15" fill="black"/>
<rect x="1065" y="725" width="15" height="15" fill="black"/>
<rect x="1095" y="725" width="15" height="15" fill="black"/>
<rect x="1110" y="725" width="15" height="15" fill="black"/>
<rect x="1140" y="725" width="15" height="15" fill="black"/>
<rect x="1155" y="725" width="15" height="15" fill="black"/>
<rect x="1050" y="740" width="15" height="15" fill="black"/>
<rect x="1110" y="740" width="15" height="15" fill="black"/>
<rect x="1155" y="740" width="15" height="15" fill="black"/>
<rect x="1050" y="755" width="15" height="15" fill="black"/>
<rect x="1065" y="755" width="15" height="15" fill="black"/>
<rect x="1080" y="755" width="15" height="15" fill="black"/>
<rect x="1095" y="755" width="15" height="15" fill="black"/>
<rect x="1110" y="755" width="15" height="15" fill="black"/>
<rect x="1125" y="755" width="15" height="15" fill="black"/>
<rect x="1140" y="755" width="15" height="15" fill="black"/>
<rect x="1155" y="755" width="15" height="15" fill="black"/>
<rect x="30" y="650" width="15" height="15" fill="black"/>
<rect x="45" y="650" width="15" height="15" fill="black"/>
<rect x="60" y="650" width="15" height="15" fill="black"/>
<rect x="75" y="650" width="15" height="15" fill="black"/>
<rect x="90" y="650" width="15" height="15" fill="black"/>
<rect x="105" y="650" width="15" height="15" fill="black"/>
<rect x="120" y="650" width="15" height="15" fill="black"/>
<rect x="135" y="650" width="15" height="15" fill="black"/>
<rect x="30" y="665" width="15" height="15" fill="black"/>
<rect x="45" y="665" width="15" height="15" fill="black"/>
<rect x="60" y="665" width="15" height="15" fill="black"/>
<rect x="75" y="665" width="15" height="15" fill="black"/>
<rect x="120" y="665" width="15" height="15" fill="black"/>
<rect x="135" y="665" width="15" height="15" fill="black"/>
<rect x="30" y="680" width="15" height="15" fill="black"/>
<rect x="45" y="680" width="15" height="15" fill="black"/>
<rect x="75" y="680" width="15" height="15" fill="black"/>
<rect x="90" y="680" width="15" height="15" fill="black"/>
<rect x="135" y="680" width="15" height="15" fill="black"/>
<rect x="30" y="695" width="15" height="15" fill="black"/>
<rect x="60" y="695" width="15" height="15" fill="black"/>
<rect x="75" y="695" width="15" height="15" fill="black"/>
<rect x="105" y="695" width="15" height="15" fill="black"/>
<rect x="135" y="695" width="15" height="15" fill="black"/>
<rect x="30" y="710" width="15" height="15" fill="black"/>
<rect x="90" y="710" width="15" height="15" fill="black"/>
<rect x="105" y="710" width="15" height="15" fill="black"/>
<rect x="135" y="710" width="15" height="15" fill="black"/>
<rect x="30" y="725" width="15" height="15" fill="black"/>
<rect x="90" y="725" width="15" height="15" fill="black"/>
<rect x="105" y="725" width="15" height="15" fill="black"/>
<rect x="120" y="725" width="15" height="15" fill="black"/>
<rect x="135" y="725" width="15" height="15" fill="black"/>
<rect x="30" y="740" width="15" height="15" fill="black"/>
<rect x="60" y="740" width="15" height="15" fill="black"/>
<rect x="75" y="740" width="15" height="15" fill="black"/>
<rect x="135" y="740" width="15" height="15" fill="black"/>
<rect x="30" y="755" width="15" height="15" fill="black"/>
<rect x="45" y="755" width="15" height="15" fill="black"/>
<rect x="60" y="755" width="15" height="15" fill="black"/>
<rect x="75" y="755" width="15" height="15" fill="black"/>
<rect x="90" y="755" width="15" height="15" fill="black"/>
<rect x="105" y="755" width="15" height="15" fill="black"/>
<rect x="120" y="755" width="15" height="15" fill="black"/>
<rect x="135" y="755" width="15" height="15" fill="black"/>
<circle cx="222.0" cy="256.0" r="99.60000000000001" fill="none" stroke="#bbb3a7" stroke-width="2"/>
<circle cx="222.0" cy="256.0" r="77.688" fill="#dfaf68" stroke="#bd8b50" stroke-width="8"/>
<circle cx="222.0" cy="256.0" r="23.904" fill="white"/>
<text x="222.0" y="371.0" font-size="16">1 / 原味</text>
<circle cx="474.0" cy="256.0" r="99.60000000000001" fill="none" stroke="#bbb3a7" stroke-width="2"/>
<circle cx="474.0" cy="256.0" r="77.688" fill="#715047" stroke="#bd8b50" stroke-width="8"/>
<circle cx="474.0" cy="256.0" r="23.904" fill="white"/>
<text x="474.0" y="371.0" font-size="16">2 / 巧克力</text>
<circle cx="726.0" cy="256.0" r="99.60000000000001" fill="none" stroke="#bbb3a7" stroke-width="2"/>
<circle cx="726.0" cy="256.0" r="77.688" fill="#dc8b96" stroke="#bd8b50" stroke-width="8"/>
<circle cx="726.0" cy="256.0" r="23.904" fill="white"/>
<text x="726.0" y="371.0" font-size="16">3 / 草莓</text>
<circle cx="977.9999999999999" cy="256.0" r="99.60000000000001" fill="none" stroke="#bbb3a7" stroke-width="2"/>
<circle cx="977.9999999999999" cy="256.0" r="77.688" fill="#8b9d69" stroke="#bd8b50" stroke-width="8"/>
<circle cx="977.9999999999999" cy="256.0" r="23.904" fill="white"/>
<text x="977.9999999999999" y="371.0" font-size="16">4 / 抹茶</text>
<circle cx="222.0" cy="520.0" r="99.60000000000001" fill="none" stroke="#bbb3a7" stroke-width="2"/>
<circle cx="222.0" cy="520.0" r="77.688" fill="#9181ae" stroke="#bd8b50" stroke-width="8"/>
<circle cx="222.0" cy="520.0" r="23.904" fill="white"/>
<text x="222.0" y="635.0" font-size="16">5 / 蓝莓</text>
<circle cx="474.0" cy="520.0" r="99.60000000000001" fill="none" stroke="#bbb3a7" stroke-width="2"/>
<circle cx="474.0" cy="520.0" r="77.688" fill="#ddc56b" stroke="#bd8b50" stroke-width="8"/>
<circle cx="474.0" cy="520.0" r="23.904" fill="white"/>
<text x="474.0" y="635.0" font-size="16">6 / 柠檬</text>
<circle cx="726.0" cy="520.0" r="99.60000000000001" fill="none" stroke="#bbb3a7" stroke-width="2"/>
<circle cx="726.0" cy="520.0" r="77.688" fill="#bc8254" stroke="#bd8b50" stroke-width="8"/>
<circle cx="726.0" cy="520.0" r="23.904" fill="white"/>
<text x="726.0" y="635.0" font-size="16">7 / 焦糖</text>
<circle cx="977.9999999999999" cy="520.0" r="99.60000000000001" fill="none" stroke="#bbb3a7" stroke-width="2"/>
<circle cx="977.9999999999999" cy="520.0" r="77.688" fill="#e8d6b1" stroke="#bd8b50" stroke-width="8"/>
<circle cx="977.9999999999999" cy="520.0" r="23.904" fill="white"/>
<text x="977.9999999999999" y="635.0" font-size="16">8 / 香草</text>
<text x="600" y="732" font-size="18">REST</text>
</g></svg>